<svg fill="#fff" height="200" width="200" xmlns="http://www.w3.org/2000/svg" viewBox="0 0 469.333 469.333" xml:space="preserve" stroke="#fff">
  <g stroke-width="0"/>
  <g stroke-linecap="round" stroke-linejoin="round"/>
  <path d="M458.667 282.667V202.56c0-27.733-21.227-58.56-51.627-58.56H106.667v-25.28c0-27.2-23.467-48.64-53.653-49.387H50.88C21.76 70.08 0 90.987 0 118.72v227.947c0 5.867 4.8 10.667 10.667 10.667v32c0 5.867 4.8 10.667 10.667 10.667H64c5.867 0 10.667-4.8 10.667-10.667v-32h320v32c0 5.867 4.8 10.667 10.667 10.667H448c5.867 0 10.667-4.8 10.667-10.667v-32c5.867 0 10.667-4.8 10.667-10.667v-53.333c-.001-5.867-4.801-10.667-10.667-10.667zm-352-117.334H407.04c17.067 0 30.293 20.053 30.293 37.227v80.107H106.667zM21.333 118.72c0-16.427 12.587-27.84 30.613-28.053 16.533.213 33.387 10.667 33.387 28.053v163.947h-64zm32 259.947H32v-21.333h21.333zm384 0H416v-21.333h21.333zM448 336H21.333v-32H448z"/>
</svg>