<svg width="800" height="800" viewBox="0 0 800 800" fill="none" xmlns="http://www.w3.org/2000/svg">
<path d="M25.0625 299.625L134.312 133.938L218.937 230.625L25.0625 299.625Z" fill="#FEE1F8"/>
<path d="M275.687 426.625L25.0625 299.625L218.937 230.625L275.687 426.625Z" fill="#F081FA"/>
<path d="M399.625 269.125L218.938 230.625L275.688 426.625L399.625 269.125Z" fill="#D964F6"/>
<path d="M774.188 299.625L664.938 133.938L580.312 230.625L774.188 299.625Z" fill="#D102C9"/>
<path d="M523.562 426.625L774.188 299.625L580.313 230.625L523.562 426.625Z" fill="#F081FA"/>
<path d="M399.625 269.125L580.312 230.625L523.562 426.625L399.625 269.125Z" fill="#FEE1F8"/>
<path d="M523.562 426.625L399.625 269.125L275.688 426.625H523.562Z" fill="#F2B2E4"/>
<path d="M268.75 62.875H530.5L664.938 133.937L580.313 230.625L399.625 269.125L218.937 230.625L134.312 133.937L268.75 62.875Z" fill="#FCB3F0"/>
<path d="M399.625 732.938L25.0625 299.625L275.687 426.625L399.625 732.938Z" fill="#D51EE5"/>
<path d="M399.625 732.938L774.188 299.625L523.562 426.625L399.625 732.938Z" fill="#FCB3F0"/>
<path d="M523.562 426.625L399.625 732.937L275.688 426.625H523.562Z" fill="#FEE1F8"/>
</svg>
