<svg width="14" height="14" fill="currentColor" viewBox="0 0 0.42 0.42" xmlns="http://www.w3.org/2000/svg" data-name="Layer 1">
  <path d="M.348.222a.02.02 0 0 1 0-.023L.37.174a.02.02 0 0 0 .002-.02L.337.093A.02.02 0 0 0 .318.085L.285.092A.02.02 0 0 1 .265.08L.254.048A.02.02 0 0 0 .237.036h-.07a.02.02 0 0 0-.018.012L.139.08a.02.02 0 0 1-.02.012L.088.084A.02.02 0 0 0 .07.092L.035.153a.02.02 0 0 0 .002.02l.022.025a.02.02 0 0 1 0 .023L.037.247a.02.02 0 0 0-.002.02L.07.328a.02.02 0 0 0 .019.008L.122.329a.02.02 0 0 1 .02.012l.011.032a.02.02 0 0 0 .018.012h.07A.02.02 0 0 0 .258.373L.269.341a.02.02 0 0 1 .02-.012l.033.007A.02.02 0 0 0 .341.328L.376.267a.02.02 0 0 0-.002-.02ZM.322.245l.014.016L.314.3.293.296a.053.053 0 0 0-.06.035L.226.35H.181L.175.33a.053.053 0 0 0-.06-.035L.094.299.071.26.085.244a.053.053 0 0 0 0-.07L.071.158.093.119l.021.004a.053.053 0 0 0 .06-.035L.181.07h.045l.007.02a.053.053 0 0 0 .06.035L.314.121.336.16.322.176a.053.053 0 0 0 0 .07M.204.141a.07.07 0 1 0 .07.07.07.07 0 0 0-.07-.07m0 .105A.035.035 0 1 1 .239.211a.035.035 0 0 1-.035.035"/>
</svg>
