<svg viewBox="0 0 20 20" fill="currentColor" width="16" height="16" aria-hidden="true" aria-label="System default" data-testid="icon">
  <path d="M9.855 3.75A.39.39 0 0 0 9.49 4l-.501 1.275a.75.75 0 0 1-.323.375l-1.657.958a.75.75 0 0 1-.488.092l-1.353-.205a.39.39 0 0 0-.4.193l-.001.003-.464.8a.39.39 0 0 0 .033.442l.855 1.071a.75.75 0 0 1 .164.468v1.913a.75.75 0 0 1-.163.467l-.855 1.074a.39.39 0 0 0-.034.441l.465.801a.39.39 0 0 0 .399.192l1.354-.205a.75.75 0 0 1 .488.092l1.657.957a.75.75 0 0 1 .323.376l.5 1.275a.39.39 0 0 0 .366.25h.928a.39.39 0 0 0 .366-.25l.5-1.275a.75.75 0 0 1 .324-.376l1.657-.957a.75.75 0 0 1 .488-.092l1.354.205a.39.39 0 0 0 .399-.192v-.001l.465-.8a.39.39 0 0 0-.033-.443l-.856-1.07a.75.75 0 0 1-.163-.469V9.472a.75.75 0 0 1 .162-.467l.856-1.076a.39.39 0 0 0 .033-.441l-.464-.801a.39.39 0 0 0-.4-.192l-1.353.205a.75.75 0 0 1-.488-.092l-1.657-.957a.75.75 0 0 1-.323-.376L11.15 4a.395.395 0 0 0-.367-.25zM8.79 2.58c.314-.215.686-.33 1.066-.33h.928a1.89 1.89 0 0 1 1.763 1.202l.404 1.031 1.203.695 1.094-.166a1.89 1.89 0 0 1 1.923.925l.464.8a1.89 1.89 0 0 1-.159 2.127l-.691.87v1.389l.69.865a1.89 1.89 0 0 1 .16 2.131l-.464.799a1.89 1.89 0 0 1-1.923.925l-1.094-.166-1.203.695-.404 1.03a1.89 1.89 0 0 1-1.763 1.203h-.928a1.89 1.89 0 0 1-1.762-1.202l-.405-1.031-1.202-.695-1.094.166a1.89 1.89 0 0 1-1.923-.925l-.464-.8a1.89 1.89 0 0 1 .159-2.127l.691-.868V9.735l-.69-.866a1.89 1.89 0 0 1-.16-2.13l.464-.8a1.89 1.89 0 0 1 1.922-.928l1.095.167 1.202-.695.405-1.031c.139-.354.381-.658.696-.873m-.616 5.702a3.036 3.036 0 1 1 4.293 4.293 3.036 3.036 0 0 1-4.293-4.293m2.146.61a1.536 1.536 0 1 0 0 3.072 1.536 1.536 0 0 0 0-3.071" fill-rule="evenodd" clip-rule="evenodd"/>
</svg>
