<svg width="15" height="15" viewBox="0 0 0.45 0.45" xmlns="http://www.w3.org/2000/svg">
  <path fill-rule="evenodd" d="M.356.225V.162C.325.179.278.188.225.188S.125.179.094.162v.063c0 .016.058.037.131.037S.356.24.356.225m0 .049C.325.291.278.3.225.3S.125.291.094.274v.063c0 .016.058.037.131.037S.356.352.356.337zm-.3-.162c0-.046.076-.075.169-.075s.169.029.169.075v.225c0 .046-.076.075-.169.075S.056.383.056.337zm.169.037C.298.149.356.127.356.112S.298.075.225.075.094.097.094.112s.058.037.131.037"/>
</svg>
